# xmcd
#
# Track frame offsets: 
#        150
#        11717
#        26223
#        36146
#        46570
#        58400
#        71072
#        83477
#        94305
#        107917
#        119402
#        133118
#        142899
#        151091
#        162880
#        175910
#        188233
#        200245
#        213435
#        225119
#        236952
#        248546
#
# Disc length: 3472 seconds
#
# Revision: 0
# Processed by: cddbd v1.5.2PL0 Copyright (c) Steve Scherf et al.
# Submitted via: ExactAudioCopy v0.99pb5
#
DISCID=300d8e16
DTITLE=Saga blues - New York city blues The big apple blues scene 1951
DTITLE=1954
DYEAR=2005
DGENRE=Blues
TTITLE0=Ralph Willis-Why'd you do it (1953)
TTITLE1=Campion Jack Dupree - Number 9 blues (1953)
TTITLE2=Sonny Terry - Dangerous woman with a 45 in her hand (1954)
TTITLE3=Sonny Terry - I love you baby (1954)
TTITLE4=Cousin Leroy Rozier - Catfish 1954
TTITLE5=Tarheel Slim - Too much competition (1954)
TTITLE6=Square Walton - Gimme your bank roll (1953)
TTITLE7=Square Walton - Pepper headed woman (1953)
TTITLE8=Brownie McGhee - A letter to Lightin' Hopkins (1952)
TTITLE9=Brownie McGhee - I'm 10 000 years old (1952)
TTITLE10=Champion Jack Dupree - The blues got me rockin (1953)
TTITLE11=Larry Dale - You better heed my warning (1954)
TTITLE12=Danny Taylor - Two more days (1953)
TTITLE13=Jimmy 'babyface' Lewis - Last night (1954)
TTITLE14=Lem Johnson - Eatin' and sleepin' with the blues (1953)
TTITLE15=Annisteen Allen - No more lovin' (1954)
TTITLE16=Lavern Baker - How can you leave a man like this (1953)
TTITLE17=Ruth Brown - Love contest (1952)
TTITLE18=Sticks McGhee - Things have changed (1954)
TTITLE19=Honey Brown - Lonesome and mistreated (1950)
TTITLE20=Jimmie Newsome - I'm afraid I love you (1954)
TTITLE21=Les Harris - Nobody else but you (1951)
EXTD=
EXTT0=
EXTT1=
EXTT2=
EXTT3=
EXTT4=
EXTT5=
EXTT6=
EXTT7=
EXTT8=
EXTT9=
EXTT10=
EXTT11=
EXTT12=
EXTT13=
EXTT14=
EXTT15=
EXTT16=
EXTT17=
EXTT18=
EXTT19=
EXTT20=
EXTT21=
PLAYORDER=
